<svg width="600" height="112" viewBox="0 0 600 112" fill="none" xmlns="http://www.w3.org/2000/svg">
<path d="M163.564 58.057C162.286 51.5575 157.068 48.2699 150.689 48.2699C139.741 48.2699 135.114 57.2817 135.114 66.8785C135.114 77.3734 139.741 86.1288 150.755 86.1288C158.807 86.1288 163.439 80.4673 164.02 72.8651H170.141C168.976 84.3303 161.831 91.2799 150.24 91.2799C135.942 91.2799 128.996 80.7237 128.996 67.3276C128.996 54.0037 136.591 43.1236 150.755 43.1236C160.349 43.1236 168.275 48.2699 169.69 58.057H163.564Z" fill="white"/>
<path d="M173.991 44.212H180.11V85.0359H204.444V90.1835H173.991V44.212Z" fill="white"/>
<path d="M242.758 73.5781C242.758 85.1636 236.117 91.279 224.658 91.279C212.802 91.279 205.801 85.8101 205.801 73.5781V44.2109H211.908V73.5781C211.908 81.6798 216.54 86.1291 224.658 86.1291C232.379 86.1291 236.632 81.6798 236.632 73.5781V44.2109H242.758V73.5781Z" fill="white"/>
<path d="M254.931 85.0359H270.255C275.535 85.0359 278.882 81.8169 278.882 76.7982C278.882 70.8044 274.047 69.1323 268.904 69.1323H254.931V85.0359ZM254.931 63.9836H267.17C274.113 63.9836 276.949 61.4676 276.949 56.6391C276.949 50.266 272.452 49.3656 267.17 49.3656H254.931V63.9836ZM248.818 44.212H265.49C269.547 44.212 274.886 44.212 277.663 45.8853C280.688 47.6899 283.069 50.9775 283.069 55.481C283.069 60.3769 280.495 64.0437 276.242 65.7857V65.9157C281.911 67.0689 285.001 71.3208 285.001 76.986C285.001 83.7418 280.172 90.1835 271.029 90.1835H248.818V44.212Z" fill="white"/>
<path fill-rule="evenodd" clip-rule="evenodd" d="M528.232 71.3453H496.55C496.848 74.167 497.652 75.4768 498.732 76.8479C500.262 78.8294 507.072 81.2418 516.408 79.6612C517.649 79.4349 521.369 78.3142 523.732 77.0754L523.955 87.9953C516.293 90.9205 509.315 91.26 504.252 90.9205C496.585 90.4077 480.488 85.0772 480.488 67.0717C480.488 55.2321 488.929 43.0531 503.773 43.0531C509.669 43.0531 514.336 44.0511 517.757 46.0314C521.176 48.0189 523.774 50.8996 525.562 54.6495C527.351 58.4223 528.232 63.317 528.232 69.3602V71.3453ZM514.397 62.9233C514.042 59.3432 513.071 56.7935 511.475 55.243C509.922 53.7045 507.863 52.928 505.301 52.928C502.345 52.928 499.981 54.0993 498.216 56.4191C497.07 57.8721 496.363 60.0426 496.056 62.9233H514.397ZM536.259 44.1269H550.778V52.3875C553.159 49.3659 555.554 46.3431 558.001 45.0743C560.409 43.7597 563.37 43.1085 566.863 43.1085C573.468 43.1085 584.731 46.36 584.731 60.6409V89.4423H569.4V64.5292C569.4 61.6786 568.165 59.6827 567.133 58.5101C566.1 57.3184 564.433 56.401 562.561 56.401C557.906 56.401 556.472 57.346 554.792 59.5226C553.568 61.1513 551.966 63.559 551.966 67.688V89.4423H536.259V44.1269ZM309.178 23.5585H324.668V89.3038H309.178V23.5585ZM385.282 89.2364H370.692V81.0962C368.267 84.1743 365.093 87.214 362.603 88.5249C360.156 89.8275 357.078 90.3451 353.491 90.3451C348.709 90.3451 344.239 88.6863 341.509 85.7802C338.804 82.8706 336.578 78.5176 336.578 72.4612V43.1241H352.061V68.479C352.061 72.7573 355.062 76.9346 360.065 76.9346C363.785 76.9346 369.119 75.3612 369.119 65.3045V43.1241H385.282V89.2364ZM395.182 43.1831H409.502V52.1708C411.859 47.4844 416.328 45.114 418.693 43.9259C421.122 42.7389 422.665 42.5403 426.072 42.5403C429.72 42.5403 432.144 42.9327 434.274 44.2341C436.403 45.5318 439.17 48.693 440.519 51.2692C443.278 48.2476 446.608 44.8624 448.87 43.7898C451.15 42.6932 453.862 42.5403 457.198 42.5403C462.111 42.5403 466.053 43.6213 468.823 46.5767C471.585 49.5008 472.958 54.0861 472.958 60.3472V89.3038H457.324V63.0389C457.324 57.647 453.28 55.9966 449.746 55.9966C444.971 55.9966 441.814 63.0509 441.814 66.3735V89.3038H426.198V63.902C426.198 61.8748 425.281 55.9135 419.689 55.9135C413.294 55.9135 410.72 61.8218 410.72 67.032V89.3038H395.182V43.1831ZM592.821 30.8235C594.035 30.8235 595.217 31.1449 596.356 31.7613C597.502 32.3801 598.39 33.2564 599.02 34.3977C599.669 35.5437 599.974 36.7403 599.993 37.9838C599.993 39.2202 599.669 40.3963 599.037 41.5375C598.396 42.6775 597.532 43.5683 596.404 44.1883C595.259 44.8119 594.089 45.1369 592.821 45.1369C591.587 45.1369 590.422 44.8119 589.271 44.1883C588.143 43.5683 587.249 42.6775 586.643 41.5375C586.008 40.3963 585.678 39.2202 585.678 37.9838C585.678 36.7403 586.008 35.5437 586.643 34.3977C587.279 33.2564 588.172 32.3801 589.318 31.7613C590.458 31.1449 591.634 30.8235 592.821 30.8235ZM592.821 32.0153C591.838 32.0153 590.866 32.2789 589.895 32.7918C588.96 33.2998 588.202 34.0389 587.669 35.0008C587.142 35.9482 586.871 36.9546 586.871 37.9838C586.871 39.0179 587.136 40.005 587.651 40.9524C588.186 41.889 588.923 42.633 589.883 43.159C590.824 43.6839 591.821 43.9451 592.821 43.9451C593.872 43.9451 594.857 43.6839 595.792 43.159C596.747 42.633 597.484 41.889 598.018 40.9524C598.529 40.005 598.797 39.0179 598.797 37.9838C598.797 36.9546 598.523 35.9482 597.981 35.0008C597.472 34.0389 596.723 33.2998 595.768 32.7918C594.809 32.2789 593.818 32.0153 592.821 32.0153ZM589.697 41.9324V34.2424H592.324C593.249 34.2424 593.904 34.3194 594.306 34.4675C594.713 34.6023 595.036 34.8407 595.259 35.197C595.517 35.5461 595.624 35.9229 595.624 36.3202C595.624 36.8859 595.439 37.3783 595.018 37.796C594.634 38.2077 594.089 38.4437 593.422 38.4967C593.699 38.617 593.927 38.7507 594.089 38.9096C594.395 39.2105 594.784 39.7185 595.235 40.4348L596.17 41.9324H594.646L593.967 40.7333C593.422 39.7727 592.991 39.1696 592.66 38.936C592.433 38.7507 592.103 38.6664 591.677 38.6664H590.952V41.9324H589.697ZM590.952 37.6022H592.451C593.183 37.6022 593.668 37.5047 593.926 37.2808C594.184 37.0689 594.306 36.7848 594.306 36.4177C594.306 36.2022 594.262 36.0011 594.13 35.8302C593.999 35.64 593.818 35.5112 593.597 35.4197C593.386 35.3306 592.961 35.2849 592.356 35.2849H590.952V37.6022Z" fill="white"/>
<path fill-rule="evenodd" clip-rule="evenodd" d="M34.2101 12.1003C34.2101 12.1003 35.3309 14.4297 35.6788 17.4609C36.0339 20.4873 36.5263 23.1224 35.9857 26.3294C35.385 29.9818 34.8217 35.5784 30.0449 42.4847C25.2886 49.3837 18.7254 54.1521 12.6413 57.7106C6.5572 61.2534 2.50153 62.6739 1.16529 63.3468C0.191405 63.8308 0 66.124 0 66.124C0.191407 67.5747 0.719883 68.5088 1.60228 69.2335C2.47866 69.9594 4.13993 70.8791 7.04475 71.2632C9.97725 71.6484 15.8447 72.0529 20.0327 71.7615C24.2196 71.4666 28.0971 71.0778 31.8639 69.4165C31.8639 69.4165 35.8401 67.866 39.8669 64.6108C43.9117 61.3485 46.9273 57.2627 48.1997 54.6384C49.4468 52.0153 51.698 47.4901 51.7281 41.5625C51.8003 35.6205 49.4468 31.8766 48.5368 29.5496C47.6182 27.2142 44.3174 22.1245 41.5823 19.1318C38.9062 16.2197 35.686 13.1982 35.0733 12.6661C34.4136 12.1376 34.2101 12.1003 34.2101 12.1003Z" fill="#ED1B2D"/>
<path fill-rule="evenodd" clip-rule="evenodd" d="M110.105 59.7957C110.105 59.7957 108.342 61.8386 103.248 63.2411C98.1416 64.6592 91.854 65.7281 85.5376 64.8445C79.2139 63.9754 71.725 59.9871 68.0304 56.5418C64.3347 53.0784 61.7489 48.0248 60.8364 42.5775C59.9071 37.1399 60.8364 29.9338 61.7489 26.2321C62.6795 22.5351 66.6268 16.1188 68.3723 13.8845C70.1179 11.6394 74.69 5.85623 76.6269 4.10949C78.5831 2.35312 80.9233 0.752039 82.5184 0.368021C84.1207 -0.0256274 85.3871 -0.068965 85.9806 0.076697C86.568 0.217544 87.5829 1.13004 88.2064 2.21227C88.8372 3.28367 89.6655 4.88475 89.3753 7.36221C89.0949 9.8505 88.4159 11.7886 86.4127 14.8572C84.4084 17.9257 81.8467 20.9762 80.378 26.0334C78.937 31.1027 79.5967 34.991 79.8977 36.3526C80.1794 37.7117 82.7832 43.5478 84.3735 45.0056C85.9806 46.4683 89.7666 50.4493 96.0902 53.5684C102.407 56.6814 109.265 59.4069 109.265 59.4069L110.105 59.7957Z" fill="#0053A0"/>
<path fill-rule="evenodd" clip-rule="evenodd" d="M16.2316 99.2337C16.7589 98.4295 17.941 96.4107 18.5766 95.3754C19.2074 94.3389 23.7302 87.4916 26.8083 83.708C29.8805 79.9112 32.9996 76.3876 36.6062 73.7645C40.1876 71.1233 41.8681 70.3047 45.4182 68.9745C48.9526 67.637 52.2113 66.1973 58.8046 65.4328C65.3847 64.6612 70.005 65.5966 72.6509 66.5367C75.2921 67.4661 78.9132 69.0551 81.8963 72.1513C85.1658 75.5666 86.1265 77.9188 86.8091 79.1094C87.482 80.3169 89.5092 84.21 91.5665 90.8996C93.6191 97.5977 92.4923 103.82 92.1612 105.557C91.8193 107.291 90.8707 111.147 86.7007 111.38C82.5247 111.603 79.5982 104.828 79.5982 104.828C79.5982 104.828 78.8422 103.534 78.1355 101.701C77.4265 99.8693 75.8784 95.7775 75.1344 94.3726C74.4025 92.9714 71.0186 86.7428 63.514 85.2405C56.0262 83.7345 48.7431 85.8436 47.3082 86.2023C45.8864 86.5791 42.4556 87.4615 39.954 88.5377C37.4392 89.6404 31.3552 93.2194 27.7678 95.8919C24.1684 98.5643 22.7828 99.7597 22.2844 100.102C21.7992 100.433 21.6139 100.509 21.0493 100.661C20.4714 100.829 19.5914 101.131 18.9426 101.267C18.2949 101.401 16.7179 101.664 16.1955 101.131C15.6501 100.601 15.6863 100.028 16.2316 99.2337Z" fill="#FDB827"/>
</svg>
